<svg xmlns="http://www.w3.org/2000/svg" xmlns:xlink="http://www.w3.org/1999/xlink" width="238" height="48.48" viewBox="0 0 238 48.48">
  <defs>
    <clipPath id="clip-path">
      <rect id="Rectangle_17847" data-name="Rectangle 17847" width="238" height="48.48" fill="#fff"/>
    </clipPath>
  </defs>
  <g id="Logo" transform="translate(0 0)">
    <g id="Group_1151" data-name="Group 1151" transform="translate(0 0)" clip-path="url(#clip-path)">
      <path id="Path_602" data-name="Path 602" d="M4.06,23.746a2.562,2.562,0,0,1-1.148-.27A2.59,2.59,0,0,1,1.728,20l.03-.061a2.616,2.616,0,1,1,4.679,2.339A2.665,2.665,0,0,1,4.06,23.746" transform="translate(1.931 24.548)" fill="#fff"/>
      <path id="Path_603" data-name="Path 603" d="M5.922,48.331a2.616,2.616,0,1,1,0-5.233H18.95c.552-.016,15.112-.594,17.581-14.916a19.389,19.389,0,0,0,.282-3.885,2.821,2.821,0,0,1,.026-.442,19.362,19.362,0,0,0-.291-3.706C34.064,5.733,19.527,5.244,18.91,5.23l-16.236,0A2.616,2.616,0,1,1,2.674,0H18.966C25.747.149,39.138,4.367,41.7,19.257a24.774,24.774,0,0,1,.361,4.9c0,.07-.007.137-.014.207a24.729,24.729,0,0,1-.363,4.709C39.12,43.964,25.731,48.182,19.008,48.331Z" transform="translate(0.077 0)" fill="#fff"/>
      <path id="Path_604" data-name="Path 604" d="M5.959,43.044a2.616,2.616,0,0,1-2.346-3.771L18.364,9.266,2.642,9.418H2.616a2.616,2.616,0,0,1-.023-5.233l19.965-.191A2.811,2.811,0,0,1,24.8,5.216a2.613,2.613,0,0,1,.135,2.547L8.31,41.582a2.617,2.617,0,0,1-2.351,1.462" transform="translate(0 5.303)" fill="#d8b073"/>
      <path id="Path_605" data-name="Path 605" d="M32.895,32.66l-4.637-8.224a10.9,10.9,0,0,1-1.446.091H23.228V32.66H21.512V11.575h5.331a9.652,9.652,0,0,1,3.04.452,6.455,6.455,0,0,1,2.321,1.3A5.609,5.609,0,0,1,33.649,15.4a7.151,7.151,0,0,1,.512,2.712,6.242,6.242,0,0,1-1.085,3.764A6.1,6.1,0,0,1,30,24.045l4.818,8.615Zm-5.9-9.669h-.03a5.618,5.618,0,0,0,4.067-1.355,4.787,4.787,0,0,0,1.415-3.585A4.526,4.526,0,0,0,31,14.466,5.864,5.864,0,0,0,26.992,13.2H23.318V22.99Z" transform="translate(28.562 15.368)" fill="#fff"/>
      <path id="Path_606" data-name="Path 606" d="M41.475,31.033V32.66h-12.5V11.575H41.3V13.2h-10.6v7.379h8.433v1.6H30.693v8.855Z" transform="translate(38.471 15.369)" fill="#fff"/>
      <path id="Path_607" data-name="Path 607" d="M51.94,17.327l-.121.091a7,7,0,0,0-2.709-3.161,7.425,7.425,0,0,0-3.976-1.085,7.81,7.81,0,0,0-3.163.631A6.737,6.737,0,0,0,39.5,15.64a8.848,8.848,0,0,0-1.627,2.924,11.982,11.982,0,0,0-.573,3.885,11.97,11.97,0,0,0,.6,3.885,8.855,8.855,0,0,0,1.627,2.921,6.848,6.848,0,0,0,2.5,1.839,7.77,7.77,0,0,0,3.133.633A7.186,7.186,0,0,0,49.409,30.4a8.134,8.134,0,0,0,2.8-3.585l1.657.482a8.871,8.871,0,0,1-8.7,6.054,9.962,9.962,0,0,1-3.827-.752,8.551,8.551,0,0,1-3.04-2.23,10.523,10.523,0,0,1-1.99-3.464,13.409,13.409,0,0,1-.722-4.518,13.474,13.474,0,0,1,.722-4.548,10.11,10.11,0,0,1,2.018-3.464,8.877,8.877,0,0,1,3.073-2.2,9.412,9.412,0,0,1,3.824-.784,9.044,9.044,0,0,1,5.061,1.446,9.266,9.266,0,0,1,3.373,4.036Z" transform="translate(47.248 15.128)" fill="#fff"/>
      <path id="Path_608" data-name="Path 608" d="M56.31,32.66l-4.639-8.224a10.9,10.9,0,0,1-1.446.091H46.641V32.66H44.925V11.575h5.331a9.656,9.656,0,0,1,3.042.452,6.445,6.445,0,0,1,2.318,1.3A5.609,5.609,0,0,1,57.062,15.4a7.106,7.106,0,0,1,.512,2.712,6.242,6.242,0,0,1-1.085,3.764,6.1,6.1,0,0,1-3.07,2.169l4.818,8.615Zm-5.9-9.669h-.03a5.612,5.612,0,0,0,4.064-1.355,4.78,4.78,0,0,0,1.418-3.585,4.526,4.526,0,0,0-1.446-3.585A5.868,5.868,0,0,0,50.407,13.2H46.731V22.99Z" transform="translate(59.649 15.368)" fill="#fff"/>
      <path id="Path_609" data-name="Path 609" d="M67.428,11.575l.03,13.222q0,4.113-1.988,6.236a7.4,7.4,0,0,1-5.694,2.076,7.288,7.288,0,0,1-5.663-2.076c-1.292-1.418-1.958-3.494-1.958-6.236V11.575h1.718V24.887a7.246,7.246,0,0,0,1.478,4.97,5.608,5.608,0,0,0,4.425,1.657,5.643,5.643,0,0,0,4.458-1.657,7.246,7.246,0,0,0,1.478-4.97V11.575Z" transform="translate(69.25 15.368)" fill="#fff"/>
      <rect id="Rectangle_17846" data-name="Rectangle 17846" width="1.716" height="21.085" transform="translate(141.55 26.944)" fill="#fff"/>
      <path id="Path_610" data-name="Path 610" d="M77.93,11.575V13.2H71.335V32.66H69.617V13.2H63.023V11.575Z" transform="translate(83.678 15.369)" fill="#fff"/>
      <path id="Path_611" data-name="Path 611" d="M88.164,11.575l-.242,21.143H86.237V22.539c0-.964,0-1.927.03-2.891s.058-1.809.091-2.561.028-1.355.058-1.837l.03-.724h-.03l-.121.27-.361.724c-.149.3-.333.633-.512,1.024s-.361.782-.573,1.206l-5,9.576h-.905l-5-9.576c-.212-.424-.424-.843-.6-1.236s-.333-.754-.482-1.054l-.363-.722-.119-.272H72.35l.033.694c.028.482.028,1.082.058,1.837s.061,1.6.091,2.561.03,1.927.03,2.891V32.66H70.874V11.575H72.5l5.091,9.849c.391.724.694,1.324.933,1.806s.421.875.57,1.176.242.512.3.633l.091.182h.061l.091-.182c.058-.121.149-.331.27-.633s.3-.694.542-1.176.573-1.082.966-1.806l5.119-9.849Z" transform="translate(94.102 15.368)" fill="#fff"/>
      <path id="Path_612" data-name="Path 612" d="M93.126,31.033V32.66h-12.5V11.575H92.947V13.2h-10.6v7.379h8.433v1.6H82.344v8.855Z" transform="translate(107.053 15.369)" fill="#fff"/>
      <path id="Path_613" data-name="Path 613" d="M103.06,11.592l-.121,21.052h-1.567L91.735,18.038c-.724-1.085-1.327-1.927-1.718-2.621a6.56,6.56,0,0,0-.631-1.022h-.061l.028.419c.033.272.033.663.063,1.145s.058,1.054.091,1.718.028,1.355.028,2.109V32.644H87.82V11.562h1.6L99.026,26.11c.689,1.024,1.264,1.867,1.685,2.558a8.446,8.446,0,0,0,.661,1.027h.03V28.068c0-.482,0-1.054-.03-1.688s-.028-1.294-.028-1.986v-12.8Z" transform="translate(116.602 15.351)" fill="#fff"/>
      <path id="Path_614" data-name="Path 614" d="M110.749,11.575V13.2h-6.6V32.66h-1.716V13.2h-6.6V11.575Z" transform="translate(127.251 15.369)" fill="#fff"/>
    </g>
  </g>
</svg>
